<svg width="984" height="317" viewBox="0 0 984 317" fill="none" xmlns="http://www.w3.org/2000/svg">
<g filter="url(#filter0_d_227_17)">
<path d="M20.5 250.315C501.55 -385.052 189.478 536.686 183.294 191.553" stroke="black" stroke-width="30" stroke-linecap="round"/>
</g>
<g filter="url(#filter1_d_227_17)">
<path d="M415.6 108.36C422.06 108.36 427.698 107.482 432.515 105.725C437.388 103.912 440.93 102.127 443.14 100.37L450.79 115.67C448.24 117.937 443.792 120.232 437.445 122.555C431.098 124.878 423.505 126.04 414.665 126.04C406.392 126.04 398.685 124.567 391.545 121.62C384.405 118.673 378.143 114.593 372.76 109.38C367.377 104.11 363.183 97.9617 360.18 90.935C357.177 83.9083 355.675 76.2867 355.675 68.07C355.675 59.8533 357.177 52.2033 360.18 45.12C363.183 38.0367 367.348 31.86 372.675 26.59C378.058 21.32 384.32 17.2117 391.46 14.265C398.657 11.2617 406.392 9.75999 414.665 9.75999C423.505 9.75999 431.098 10.9217 437.445 13.245C443.792 15.5683 448.24 17.8633 450.79 20.13L443.14 35.43C440.93 33.6733 437.388 31.9167 432.515 30.16C427.698 28.3467 422.06 27.44 415.6 27.44C409.48 27.44 403.927 28.46 398.94 30.5C393.953 32.54 389.675 35.4017 386.105 39.085C382.535 42.7683 379.787 47.075 377.86 52.005C375.933 56.8783 374.97 62.1483 374.97 67.815C374.97 73.5383 375.933 78.865 377.86 83.795C379.787 88.725 382.535 93.0317 386.105 96.715C389.675 100.398 393.953 103.26 398.94 105.3C403.927 107.34 409.48 108.36 415.6 108.36ZM481.346 67.815C481.346 75.5217 482.961 82.52 486.191 88.81C489.421 95.0433 493.87 100.002 499.536 103.685C505.203 107.312 511.72 109.125 519.086 109.125C526.566 109.125 533.111 107.312 538.721 103.685C544.388 100.002 548.808 95.0433 551.981 88.81C555.211 82.52 556.826 75.5217 556.826 67.815C556.826 60.1083 555.211 53.1383 551.981 46.905C548.808 40.6717 544.388 35.7417 538.721 32.115C533.111 28.4883 526.566 26.675 519.086 26.675C511.72 26.675 505.203 28.4883 499.536 32.115C493.87 35.7417 489.421 40.6717 486.191 46.905C482.961 53.1383 481.346 60.1083 481.346 67.815ZM462.731 67.815C462.731 59.655 464.148 52.0617 466.981 45.035C469.871 37.9517 473.838 31.775 478.881 26.505C483.981 21.235 489.96 17.1267 496.816 14.18C503.673 11.2333 511.096 9.75999 519.086 9.75999C527.19 9.75999 534.641 11.2333 541.441 14.18C548.298 17.1267 554.276 21.235 559.376 26.505C564.476 31.775 568.415 37.9517 571.191 45.035C573.968 52.0617 575.356 59.655 575.356 67.815C575.356 76.0317 573.968 83.6817 571.191 90.765C568.471 97.7917 564.59 103.968 559.546 109.295C554.503 114.565 548.553 118.673 541.696 121.62C534.84 124.567 527.303 126.04 519.086 126.04C510.813 126.04 503.22 124.567 496.306 121.62C489.45 118.673 483.5 114.565 478.456 109.295C473.47 103.968 469.588 97.7917 466.811 90.765C464.091 83.6817 462.731 76.0317 462.731 67.815ZM593.379 11.8H677.954L617.094 108.02H674.299V124H585.474L646.419 27.78H593.379V11.8ZM722.249 83.625L684.169 11.8H705.844L731.174 62.97L756.419 11.8H778.009L740.099 83.625V124H722.249V83.625ZM413.56 280H392.905L352.19 167.8H372.335L403.275 257.815L434.3 167.8H454.445L413.56 280ZM477.86 223.815C477.86 231.522 479.475 238.52 482.705 244.81C485.935 251.043 490.383 256.002 496.05 259.685C501.717 263.312 508.233 265.125 515.6 265.125C523.08 265.125 529.625 263.312 535.235 259.685C540.902 256.002 545.322 251.043 548.495 244.81C551.725 238.52 553.34 231.522 553.34 223.815C553.34 216.108 551.725 209.138 548.495 202.905C545.322 196.672 540.902 191.742 535.235 188.115C529.625 184.488 523.08 182.675 515.6 182.675C508.233 182.675 501.717 184.488 496.05 188.115C490.383 191.742 485.935 196.672 482.705 202.905C479.475 209.138 477.86 216.108 477.86 223.815ZM459.245 223.815C459.245 215.655 460.662 208.062 463.495 201.035C466.385 193.952 470.352 187.775 475.395 182.505C480.495 177.235 486.473 173.127 493.33 170.18C500.187 167.233 507.61 165.76 515.6 165.76C523.703 165.76 531.155 167.233 537.955 170.18C544.812 173.127 550.79 177.235 555.89 182.505C560.99 187.775 564.928 193.952 567.705 201.035C570.482 208.062 571.87 215.655 571.87 223.815C571.87 232.032 570.482 239.682 567.705 246.765C564.985 253.792 561.103 259.968 556.06 265.295C551.017 270.565 545.067 274.673 538.21 277.62C531.353 280.567 523.817 282.04 515.6 282.04C507.327 282.04 499.733 280.567 492.82 277.62C485.963 274.673 480.013 270.565 474.97 265.295C469.983 259.968 466.102 253.792 463.325 246.765C460.605 239.682 459.245 232.032 459.245 223.815ZM616.498 239.625L578.417 167.8H600.093L625.423 218.97L650.668 167.8H672.258L634.348 239.625V280H616.498V239.625ZM706.957 167.8H725.232L767.562 280H748.522L739.257 254.33H693.017L683.667 280H664.542L706.957 167.8ZM698.797 238.435H733.477L716.222 189.56H715.967L698.797 238.435ZM825.604 218.545H882.384V224.92C882.384 232.853 881.024 240.277 878.304 247.19C875.584 254.047 871.731 260.11 866.744 265.38C861.814 270.593 855.977 274.673 849.234 277.62C842.491 280.567 835.039 282.04 826.879 282.04C818.606 282.04 811.012 280.538 804.099 277.535C797.242 274.475 791.292 270.282 786.249 264.955C781.262 259.628 777.381 253.452 774.604 246.425C771.884 239.398 770.524 231.862 770.524 223.815C770.524 215.825 771.884 208.317 774.604 201.29C777.381 194.263 781.262 188.087 786.249 182.76C791.292 177.433 797.242 173.268 804.099 170.265C811.012 167.262 818.606 165.76 826.879 165.76C832.942 165.76 838.382 166.44 843.199 167.8C848.072 169.103 852.407 170.888 856.204 173.155C860.001 175.422 863.316 178 866.149 180.89C868.982 183.723 871.391 186.642 873.374 189.645L856.884 197.975C853.824 193.612 849.829 189.985 844.899 187.095C839.969 184.148 833.962 182.675 826.879 182.675C821.382 182.675 816.311 183.752 811.664 185.905C807.074 188.058 803.079 191.033 799.679 194.83C796.336 198.627 793.729 203.018 791.859 208.005C790.046 212.935 789.139 218.205 789.139 223.815C789.139 229.425 790.046 234.723 791.859 239.71C793.729 244.697 796.336 249.088 799.679 252.885C803.079 256.682 807.074 259.685 811.664 261.895C816.311 264.048 821.382 265.125 826.879 265.125C832.036 265.125 836.711 264.303 840.904 262.66C845.154 260.96 848.837 258.637 851.954 255.69C855.071 252.743 857.536 249.315 859.349 245.405C861.162 241.438 862.211 237.188 862.494 232.655H825.604V218.545ZM898.557 167.8H966.557V183.78H916.322V215.995H965.707V231.55H916.322V264.02H966.557V280H898.557V167.8Z" fill="black"/>
</g>
<defs>
<filter id="filter0_d_227_17" x="0.499268" y="0.626221" width="316" height="298.997" filterUnits="userSpaceOnUse" color-interpolation-filters="sRGB">
<feFlood flood-opacity="0" result="BackgroundImageFix"/>
<feColorMatrix in="SourceAlpha" type="matrix" values="0 0 0 0 0 0 0 0 0 0 0 0 0 0 0 0 0 0 127 0" result="hardAlpha"/>
<feOffset dx="4" dy="4"/>
<feGaussianBlur stdDeviation="4.5"/>
<feComposite in2="hardAlpha" operator="out"/>
<feColorMatrix type="matrix" values="0 0 0 0 0 0 0 0 0 0 0 0 0 0 0 0 0 0 0.25 0"/>
<feBlend mode="normal" in2="BackgroundImageFix" result="effect1_dropShadow_227_17"/>
<feBlend mode="normal" in="SourceGraphic" in2="effect1_dropShadow_227_17" result="shape"/>
</filter>
<filter id="filter1_d_227_17" x="350.19" y="7.76001" width="626.367" height="284.28" filterUnits="userSpaceOnUse" color-interpolation-filters="sRGB">
<feFlood flood-opacity="0" result="BackgroundImageFix"/>
<feColorMatrix in="SourceAlpha" type="matrix" values="0 0 0 0 0 0 0 0 0 0 0 0 0 0 0 0 0 0 127 0" result="hardAlpha"/>
<feOffset dx="4" dy="4"/>
<feGaussianBlur stdDeviation="3"/>
<feComposite in2="hardAlpha" operator="out"/>
<feColorMatrix type="matrix" values="0 0 0 0 0 0 0 0 0 0 0 0 0 0 0 0 0 0 0.25 0"/>
<feBlend mode="normal" in2="BackgroundImageFix" result="effect1_dropShadow_227_17"/>
<feBlend mode="normal" in="SourceGraphic" in2="effect1_dropShadow_227_17" result="shape"/>
</filter>
</defs>
</svg>
